# xmcd
#
# Track frame offsets:
#        182
#        94820
#        127590
#        174700
#        222015
#
# Disc length: 3219 seconds
#
# Revision: 3
# Processed by: cddbd v1.5.2PL0 Copyright (c) Steve Scherf et al.
# Submitted via: ExactAudioCopyFreeDBPlugin 1.0
#
DISCID=390c9105
DTITLE=Peter Iljitsch Tschaikowski (1840-1893) / Violinkonzert..
DYEAR=1992
DGENRE=Classical
TTITLE0=Violinkonzert D-dur op. 35 - 1. Allegro Moderato
TTITLE1=Violinkonzert D-dur op. 35 - 2. Canzonetta
TTITLE2=Violinkonzert D-dur op. 35 - 3. Finale: allegro vivacissimo
TTITLE3=Melancholische Serenade b-moll für Violine und Orchester op. 26
TTITLE4=3 Stücke für Violine und Klavier op. 42
EXTD=YEAR: 1994
EXTT0=
EXTT1=
EXTT2=
EXTT3=
EXTT4=
PLAYORDER=
.
